<svg xmlns="http://www.w3.org/2000/svg" width="100" height="71" viewBox="0 0 100 71" fill="none">
  <path d="M16.4671 70.6451C7.38524 70.6451 0 63.2599 0 54.178C0 45.0962 7.38524 37.7109 16.4671 37.7109C25.549 37.7109 32.9342 45.0962 32.9342 54.178C32.9342 63.3098 25.549 70.6451 16.4671 70.6451Z" fill="#00093C"/>
  <path d="M16.4671 70.6451C7.38524 70.6451 0 63.2599 0 54.178C0 45.0962 7.38524 37.7109 16.4671 37.7109C25.549 37.7109 32.9342 45.0962 32.9342 54.178C32.9342 63.3098 25.549 70.6451 16.4671 70.6451Z" fill="#00093C"/>
  <path d="M55.3893 1.83482L37.525 31.0265C37.026 31.8748 37.5749 32.9227 38.523 32.9227H56.3873H74.2516C75.1998 32.9227 75.7487 31.8249 75.2497 31.0265L57.3854 1.83482C56.8864 1.08631 55.8384 1.08631 55.3893 1.83482Z" fill="#00093C"/>
  <path d="M32.5849 6.77396L26.1478 0.336827C25.6987 -0.112276 24.9003 -0.112276 24.4512 0.336827L17.3653 7.42267C16.9162 7.87177 16.1178 7.87177 15.6687 7.42267L8.58287 0.336827C8.13377 -0.112276 7.33537 -0.112276 6.88627 0.336827L0.449132 6.77396C2.90051e-05 7.22307 2.90051e-05 8.02147 0.449132 8.47058L7.53497 15.5564C7.98407 16.0055 7.98407 16.8039 7.53497 17.253L0.449132 24.3389C2.90051e-05 24.788 2.90051e-05 25.5864 0.449132 26.0355L6.88627 32.4726C7.33537 32.9217 8.13377 32.9217 8.58287 32.4726L15.6687 25.3868C16.1178 24.9377 16.9162 24.9377 17.3653 25.3868L24.4512 32.4726C24.9003 32.9217 25.6987 32.9217 26.1478 32.4726L32.5849 26.0355C33.034 25.5864 33.034 24.788 32.5849 24.3389L25.4991 17.253C25.05 16.8039 25.05 16.0055 25.4991 15.5564L32.5849 8.47058C33.0839 8.02147 33.0839 7.27297 32.5849 6.77396Z" fill="#00093C"/>
  <path d="M40.6685 49.0877V51.1835H44.3112V52.6307H40.6685V55.475H38.8721V47.6406H44.7603V49.0877H40.6685Z" fill="black"/>
  <path d="M47.2059 54.6766C46.6071 54.0778 46.2578 53.1796 46.2578 52.0319V47.6406H48.0542V51.9321C48.0542 53.3293 48.653 54.0279 49.8007 54.0279C50.3496 54.0279 50.7987 53.8782 51.0981 53.5289C51.3975 53.1796 51.5472 52.6806 51.5472 51.9321V47.6406H53.3437V52.0319C53.3437 53.1796 53.0443 54.0778 52.3956 54.6766C51.7968 55.2754 50.8985 55.6247 49.8007 55.6247C48.7029 55.6247 47.8047 55.2754 47.2059 54.6766Z" fill="black"/>
  <path d="M56.9359 49.1376H54.4409V47.6406H61.2274V49.1376H58.7323V55.475H56.9359V49.1376Z" fill="black"/>
  <path d="M63.2733 54.6766C62.6745 54.0778 62.3252 53.1796 62.3252 52.0319V47.6406H64.1216V51.9321C64.1216 53.3293 64.7204 54.0279 65.8681 54.0279C66.417 54.0279 66.8661 53.8782 67.1655 53.5289C67.4649 53.1796 67.6146 52.6806 67.6146 51.9321V47.6406H69.411V52.0319C69.411 53.1796 69.1116 54.0778 68.4629 54.6766C67.8641 55.2754 66.9659 55.6247 65.8681 55.6247C64.7703 55.6247 63.922 55.2754 63.2733 54.6766Z" fill="black"/>
  <path d="M76.4969 55.4759L74.9999 53.2802H74.9001H73.3032V55.4759H71.5068V47.6914H74.9001C75.5987 47.6914 76.1975 47.7912 76.6965 48.0407C77.1955 48.2902 77.5947 48.5896 77.8941 49.0387C78.1436 49.4379 78.2933 49.9868 78.2933 50.5357C78.2933 51.1345 78.1436 51.6335 77.8941 52.0327C77.5947 52.4319 77.1955 52.7812 76.6965 52.9808L78.443 55.4759H76.4969ZM76.0478 49.4878C75.7484 49.2383 75.3492 49.1385 74.8003 49.1385H73.3032V51.883H74.8003C75.3492 51.883 75.7484 51.7832 76.0478 51.5337C76.3472 51.2842 76.447 50.9848 76.447 50.5357C76.4969 50.0367 76.3472 49.7373 76.0478 49.4878Z" fill="black"/>
  <path d="M86.1278 54.0279V55.475H80.0898V47.6406H85.9781V49.0877H81.8862V50.7844H85.4791V52.2315H81.8862V54.0279H86.1278Z" fill="black"/>
  <path d="M44.0119 68.2519H40.3691L39.6705 69.9485H37.8242L41.3172 62.1641H43.1137L46.6067 69.9485H44.7105L44.0119 68.2519ZM43.4629 66.9046L42.2154 63.9106L40.9679 66.9046H43.4629Z" fill="black"/>
  <path d="M49.2017 69.5497C48.553 69.2004 48.054 68.7014 47.7047 68.1026C47.3554 67.5038 47.1558 66.8052 47.1558 66.0068C47.1558 65.2583 47.3554 64.5597 47.7047 63.911C48.054 63.3121 48.6029 62.8131 49.2017 62.4638C49.8504 62.1145 50.549 61.9648 51.3474 61.9648C52.046 61.9648 52.6448 62.0647 53.1937 62.3142C53.7426 62.5637 54.1917 62.9129 54.5909 63.362L53.4432 64.41C52.8943 63.8112 52.2456 63.5118 51.4971 63.5118C50.9981 63.5118 50.5989 63.6116 50.1997 63.8112C49.8005 64.0108 49.5011 64.3102 49.3015 64.7094C49.1019 65.1086 49.0021 65.5078 49.0021 66.0068C49.0021 66.5058 49.1019 66.905 49.3015 67.3042C49.5011 67.7034 49.8005 68.0028 50.1997 68.2024C50.5989 68.402 50.9981 68.5018 51.4971 68.5018C52.2955 68.5018 52.9442 68.2024 53.4432 67.5537L54.5909 68.6016C54.2416 69.0507 53.7426 69.4 53.1937 69.6495C52.6448 69.899 52.046 69.9988 51.3474 69.9988C50.5989 70.0487 49.8504 69.899 49.2017 69.5497Z" fill="black"/>
  <path d="M61.1276 68.2519H57.4849L56.7863 69.9485H54.9399L58.433 62.1641H60.2294L63.7224 69.9485H61.8262L61.1276 68.2519ZM60.5787 66.9046L59.3312 63.9106L58.0837 66.9046H60.5787Z" fill="black"/>
  <path d="M64.8706 62.1133H68.4135C69.2618 62.1133 70.0103 62.263 70.659 62.6123C71.3077 62.9117 71.8067 63.4107 72.156 63.9596C72.5053 64.5584 72.7049 65.2071 72.7049 66.0055C72.7049 66.8039 72.5053 67.4526 72.156 68.0514C71.8067 68.6502 71.3077 69.0993 70.659 69.3987C70.0103 69.6981 69.2618 69.8977 68.4135 69.8977H64.8706V62.1133ZM68.3137 68.4506C69.1121 68.4506 69.7109 68.251 70.16 67.8019C70.6091 67.3528 70.8586 66.754 70.8586 66.0554C70.8586 65.3069 70.6091 64.7081 70.16 64.3089C69.7109 63.8598 69.0622 63.6602 68.3137 63.6602H66.667V68.5005H68.3137V68.4506Z" fill="black"/>
  <path d="M80.4393 68.5005V69.9476H74.4014V62.1133H80.2896V63.5604H76.1978V65.257H79.8405V66.6542H76.1978V68.5005H80.4393Z" fill="black"/>
  <path d="M89.3217 69.9476V65.257L87.0263 69.0993H86.2279L83.9324 65.3568V69.9476H82.2358V62.1133H83.7328L86.6271 66.9536L89.5213 62.1133H91.0183V69.9476H89.3217Z" fill="black"/>
  <path d="M96.9561 67.1532V69.9476H95.1596V67.1532L92.1157 62.1133H94.0618L96.1577 65.6063L98.2036 62.1133H100L96.9561 67.1532Z" fill="black"/>
</svg>