<svg xmlns="http://www.w3.org/2000/svg" width="130" height="130" viewBox="0 0 130 130" fill="none">
  <path d="M97.0352 2.04102C98.3786 0.696322 100.791 0.654343 102.201 1.91504L102.335 2.04102L127.812 27.5469C129.418 29.1555 129.362 31.4577 127.85 32.8203L127.83 32.8379L127.812 32.8564L99.7676 60.9316C97.668 63.0336 97.6021 66.6619 99.5703 68.8594L99.7676 69.0684L127.812 97.1436C129.156 98.4891 129.197 100.907 127.938 102.319L127.812 102.453L102.335 127.959C100.991 129.304 98.5783 129.346 97.168 128.085L97.0352 127.959L68.9912 99.8828C66.891 97.7802 63.265 97.7145 61.0693 99.6855L60.8613 99.8828L32.8174 127.959C31.4739 129.304 29.0607 129.346 27.6504 128.085L27.5176 127.959L2.04102 102.453C0.696823 101.107 0.654669 98.6899 1.91504 97.2773L2.04102 97.1436L30.085 69.0684C32.1846 66.9663 32.2496 63.3381 30.2812 61.1406L30.085 60.9316L2.04102 32.8564C0.696877 31.5108 0.654827 29.0933 1.91504 27.6807L2.04102 27.5469L27.5176 2.04102C28.8611 0.696355 31.2734 0.654306 32.6836 1.91504L32.8174 2.04102L60.8613 30.1172C62.9617 32.2199 66.5876 32.2859 68.7832 30.3145L68.9912 30.1172L97.0352 2.04102Z" stroke="url(#paint0_linear_35443_8021)" stroke-width="2"/>
  <defs>
    <linearGradient id="paint0_linear_35443_8021" x1="0" y1="65" x2="130" y2="65" gradientUnits="userSpaceOnUse">
      <stop stop-color="#F7941D"/>
      <stop offset="1" stop-color="#27AAE1"/>
    </linearGradient>
  </defs>
</svg>